<?xml version="1.0" encoding="UTF-8"?>
<svg width="1429px" height="819.522511px" viewBox="0 0 1429 819.522511" version="1.1" xmlns="http://www.w3.org/2000/svg" xmlns:xlink="http://www.w3.org/1999/xlink">
    <title>Fill 3</title>
    <g id="Page-1" stroke="none" stroke-width="1" fill="none" fill-rule="evenodd">
        <path d="M83.2840032,220.493951 C166.072811,242.824957 425.134592,170.89072 453.519434,238.719139 C472.177306,283.304356 369.123512,363.135551 460.79827,382.291666 C574.37697,406.025619 685.692974,342.23746 839.189145,436.339746 C951.215051,505.016676 862.739535,586.284533 864.110638,671.761228 C866.850972,842.497341 1184.10467,866.581562 1240.10826,737.184597 C1282.42516,639.407305 1161.83117,516.663564 1287.28584,401.816781 C1331.27167,361.550915 1492.65917,300.283938 1401.59692,191.127609 C1213.12824,-34.7879302 1014.78219,237.136376 815.413984,180.160653 C671.9707,139.166155 649.727728,-14.7645732 405.899807,1.14921929 C344.217004,5.17449471 282.472388,-2.08935735 220.692184,2.1962779 C-58.623345,21.571545 -34.4173727,188.746909 83.2840032,220.493951" id="Fill-3" fill="#A585AA"></path>
    </g>
</svg>